STARTFONT 2.1
FONT -Monotype-Century Gothic-Bold-R-Normal--10-100-75-75-P-49-iso8859-2
SIZE 10 75 75
FONTBOUNDINGBOX 15 13 -2 -3

STARTPROPERTIES 24
FOUNDRY "Monotype"
FAMILY_NAME "Century Gothic"
WEIGHT_NAME "Bold"
SLANT "R"
SETWIDTH_NAME "Normal"
ADD_STYLE_NAME ""
PIXEL_SIZE 10
POINT_SIZE 100
RESOLUTION_X 75
RESOLUTION_Y 75
SPACING "P"
AVERAGE_WIDTH 49
CHARSET_REGISTRY "iso8859"
CHARSET_ENCODING "2"
FACE_NAME "Century Gothic Bold ISO Latin2"
_DEC_DEVICE_FONTNAMES "PS=centurygothic-b-lat2"
COPYRIGHT "Copyright (c) 1994 Monotype Typography Ltd."
CAP_HEIGHT 9
X_HEIGHT 6
WEIGHT 10
QUAD_WIDTH 6
DEFAULT_CHAR 160
FONT_DESCENT 3
FONT_ASCENT 10
ENDPROPERTIES

CHARS 191

STARTCHAR space
ENCODING 32
SWIDTH 280 0
DWIDTH 3 0
BBX 0 0 0 0
BITMAP
ENDCHAR

STARTCHAR exclam
ENCODING 33
SWIDTH 280 0
DWIDTH 3 0
BBX 2 7 1 0
BITMAP
C0
C0
C0
C0
C0
00
C0
ENDCHAR

STARTCHAR quotedbl
ENCODING 34
SWIDTH 360 0
DWIDTH 4 0
BBX 3 3 1 4
BITMAP
A0
A0
A0
ENDCHAR

STARTCHAR numbersign
ENCODING 35
SWIDTH 600 0
DWIDTH 6 0
BBX 5 8 1 0
BITMAP
28
28
F8
50
F8
A0
A0
A0
ENDCHAR

STARTCHAR dollar
ENCODING 36
SWIDTH 560 0
DWIDTH 6 0
BBX 5 9 1 -1
BITMAP
20
78
A8
E0
70
38
A8
F0
20
ENDCHAR

STARTCHAR percent
ENCODING 37
SWIDTH 860 0
DWIDTH 9 0
BBX 9 8 0 0
BITMAP
6600
BC00
B400
6800
1300
1580
2580
4300
ENDCHAR

STARTCHAR ampersand
ENCODING 38
SWIDTH 680 0
DWIDTH 7 0
BBX 6 7 1 0
BITMAP
70
50
20
60
DC
D8
74
ENDCHAR

STARTCHAR quoteright
ENCODING 39
SWIDTH 280 0
DWIDTH 3 0
BBX 2 3 1 4
BITMAP
40
40
80
ENDCHAR

STARTCHAR parenleft
ENCODING 40
SWIDTH 380 0
DWIDTH 4 0
BBX 3 10 1 -2
BITMAP
60
40
C0
C0
C0
C0
C0
C0
40
60
ENDCHAR

STARTCHAR parenright
ENCODING 41
SWIDTH 380 0
DWIDTH 4 0
BBX 3 10 1 -2
BITMAP
C0
40
60
60
60
60
60
60
40
C0
ENDCHAR

STARTCHAR asterisk
ENCODING 42
SWIDTH 440 0
DWIDTH 4 0
BBX 4 4 0 4
BITMAP
40
70
E0
20
ENDCHAR

STARTCHAR plus
ENCODING 43
SWIDTH 600 0
DWIDTH 6 0
BBX 5 5 1 1
BITMAP
20
20
F8
20
20
ENDCHAR

STARTCHAR comma
ENCODING 44
SWIDTH 280 0
DWIDTH 3 0
BBX 2 3 1 -2
BITMAP
40
40
80
ENDCHAR

STARTCHAR minus
ENCODING 45
SWIDTH 600 0
DWIDTH 6 0
BBX 5 1 1 3
BITMAP
F8
ENDCHAR

STARTCHAR period
ENCODING 46
SWIDTH 280 0
DWIDTH 3 0
BBX 2 1 1 0
BITMAP
C0
ENDCHAR

STARTCHAR slash
ENCODING 47
SWIDTH 460 0
DWIDTH 5 0
BBX 4 9 1 -2
BITMAP
10
10
20
20
20
40
40
80
80
ENDCHAR

STARTCHAR zero
ENCODING 48
SWIDTH 560 0
DWIDTH 6 0
BBX 5 7 1 0
BITMAP
70
D8
D8
D8
D8
D8
70
ENDCHAR

STARTCHAR one
ENCODING 49
SWIDTH 560 0
DWIDTH 6 0
BBX 3 7 1 0
BITMAP
E0
60
60
60
60
60
60
ENDCHAR

STARTCHAR two
ENCODING 50
SWIDTH 560 0
DWIDTH 6 0
BBX 5 7 1 0
BITMAP
70
D8
18
18
30
60
F8
ENDCHAR

STARTCHAR three
ENCODING 51
SWIDTH 560 0
DWIDTH 6 0
BBX 5 7 1 0
BITMAP
70
D8
18
30
18
D8
70
ENDCHAR

STARTCHAR four
ENCODING 52
SWIDTH 560 0
DWIDTH 6 0
BBX 6 7 1 0
BITMAP
18
38
78
D8
FC
18
18
ENDCHAR

STARTCHAR five
ENCODING 53
SWIDTH 560 0
DWIDTH 6 0
BBX 5 7 1 0
BITMAP
78
40
70
58
18
D8
70
ENDCHAR

STARTCHAR six
ENCODING 54
SWIDTH 560 0
DWIDTH 6 0
BBX 5 7 1 0
BITMAP
30
60
C0
F0
D8
D8
70
ENDCHAR

STARTCHAR seven
ENCODING 55
SWIDTH 560 0
DWIDTH 6 0
BBX 4 7 2 0
BITMAP
F0
30
30
60
60
C0
C0
ENDCHAR

STARTCHAR eight
ENCODING 56
SWIDTH 560 0
DWIDTH 6 0
BBX 5 7 1 0
BITMAP
70
D8
D8
70
D8
D8
70
ENDCHAR

STARTCHAR nine
ENCODING 57
SWIDTH 560 0
DWIDTH 6 0
BBX 5 7 1 0
BITMAP
70
D8
D8
78
18
30
60
ENDCHAR

STARTCHAR colon
ENCODING 58
SWIDTH 280 0
DWIDTH 3 0
BBX 2 5 1 0
BITMAP
C0
00
00
00
C0
ENDCHAR

STARTCHAR semicolon
ENCODING 59
SWIDTH 280 0
DWIDTH 3 0
BBX 2 7 1 -2
BITMAP
C0
00
00
00
40
40
80
ENDCHAR

STARTCHAR less
ENCODING 60
SWIDTH 600 0
DWIDTH 6 0
BBX 5 5 1 1
BITMAP
18
70
C0
70
18
ENDCHAR

STARTCHAR equal
ENCODING 61
SWIDTH 600 0
DWIDTH 6 0
BBX 4 3 1 2
BITMAP
F0
00
F0
ENDCHAR

STARTCHAR greater
ENCODING 62
SWIDTH 600 0
DWIDTH 6 0
BBX 5 5 1 1
BITMAP
C0
70
18
70
C0
ENDCHAR

STARTCHAR question
ENCODING 63
SWIDTH 560 0
DWIDTH 6 0
BBX 4 8 1 0
BITMAP
60
B0
30
30
60
60
00
60
ENDCHAR

STARTCHAR at
ENCODING 64
SWIDTH 740 0
DWIDTH 7 0
BBX 8 8 0 0
BITMAP
7E
C3
9D
B5
A5
9F
C0
7C
ENDCHAR

STARTCHAR A
ENCODING 65
SWIDTH 740 0
DWIDTH 8 0
BBX 7 7 1 0
BITMAP
10
38
28
6C
7C
C6
C6
ENDCHAR

STARTCHAR B
ENCODING 66
SWIDTH 580 0
DWIDTH 6 0
BBX 5 7 1 0
BITMAP
F0
D8
D8
F0
D8
D8
F0
ENDCHAR

STARTCHAR C
ENCODING 67
SWIDTH 780 0
DWIDTH 7 0
BBX 6 7 1 0
BITMAP
78
CC
C0
C0
C0
CC
78
ENDCHAR

STARTCHAR D
ENCODING 68
SWIDTH 700 0
DWIDTH 7 0
BBX 6 7 1 0
BITMAP
F8
CC
CC
CC
CC
CC
F8
ENDCHAR

STARTCHAR E
ENCODING 69
SWIDTH 520 0
DWIDTH 5 0
BBX 4 7 1 0
BITMAP
F0
C0
C0
F0
C0
C0
F0
ENDCHAR

STARTCHAR F
ENCODING 70
SWIDTH 480 0
DWIDTH 5 0
BBX 4 7 1 0
BITMAP
F0
C0
C0
F0
C0
C0
C0
ENDCHAR

STARTCHAR G
ENCODING 71
SWIDTH 840 0
DWIDTH 7 0
BBX 6 7 1 0
BITMAP
78
CC
C0
DC
CC
CC
78
ENDCHAR

STARTCHAR H
ENCODING 72
SWIDTH 680 0
DWIDTH 7 0
BBX 6 7 1 0
BITMAP
CC
CC
CC
FC
CC
CC
CC
ENDCHAR

STARTCHAR I
ENCODING 73
SWIDTH 280 0
DWIDTH 3 0
BBX 2 7 1 0
BITMAP
C0
C0
C0
C0
C0
C0
C0
ENDCHAR

STARTCHAR J
ENCODING 74
SWIDTH 480 0
DWIDTH 5 0
BBX 5 7 0 0
BITMAP
18
18
18
18
18
D8
70
ENDCHAR

STARTCHAR K
ENCODING 75
SWIDTH 620 0
DWIDTH 6 0
BBX 5 7 1 0
BITMAP
D8
D8
F0
E0
F0
D8
D8
ENDCHAR

STARTCHAR L
ENCODING 76
SWIDTH 440 0
DWIDTH 5 0
BBX 4 7 1 0
BITMAP
C0
C0
C0
C0
C0
C0
F0
ENDCHAR

STARTCHAR M
ENCODING 77
SWIDTH 900 0
DWIDTH 10 0
BBX 9 7 1 0
BITMAP
C180
E380
E380
D580
D580
C980
C980
ENDCHAR

STARTCHAR N
ENCODING 78
SWIDTH 740 0
DWIDTH 7 0
BBX 6 7 1 0
BITMAP
CC
CC
EC
FC
DC
CC
CC
ENDCHAR

STARTCHAR O
ENCODING 79
SWIDTH 840 0
DWIDTH 7 0
BBX 6 7 1 0
BITMAP
78
CC
CC
CC
CC
CC
78
ENDCHAR

STARTCHAR P
ENCODING 80
SWIDTH 560 0
DWIDTH 6 0
BBX 5 7 1 0
BITMAP
F0
D8
D8
F0
C0
C0
C0
ENDCHAR

STARTCHAR Q
ENCODING 81
SWIDTH 840 0
DWIDTH 7 0
BBX 6 7 1 0
BITMAP
78
CC
CC
CC
FC
DC
7C
ENDCHAR

STARTCHAR R
ENCODING 82
SWIDTH 580 0
DWIDTH 6 0
BBX 5 7 1 0
BITMAP
F0
D8
D8
F0
F0
D0
D8
ENDCHAR

STARTCHAR S
ENCODING 83
SWIDTH 520 0
DWIDTH 5 0
BBX 4 7 1 0
BITMAP
60
D0
C0
60
30
B0
60
ENDCHAR

STARTCHAR T
ENCODING 84
SWIDTH 420 0
DWIDTH 5 0
BBX 4 7 1 0
BITMAP
F0
60
60
60
60
60
60
ENDCHAR

STARTCHAR U
ENCODING 85
SWIDTH 640 0
DWIDTH 7 0
BBX 6 7 1 0
BITMAP
CC
CC
CC
CC
CC
CC
78
ENDCHAR

STARTCHAR V
ENCODING 86
SWIDTH 700 0
DWIDTH 6 0
BBX 7 7 0 0
BITMAP
C6
C6
6C
6C
28
38
10
ENDCHAR

STARTCHAR W
ENCODING 87
SWIDTH 900 0
DWIDTH 10 0
BBX 9 7 1 0
BITMAP
C980
C980
DD80
5500
7700
3600
3600
ENDCHAR

STARTCHAR X
ENCODING 88
SWIDTH 680 0
DWIDTH 7 0
BBX 6 7 1 0
BITMAP
CC
CC
78
30
78
CC
CC
ENDCHAR

STARTCHAR Y
ENCODING 89
SWIDTH 620 0
DWIDTH 5 0
BBX 6 7 0 0
BITMAP
CC
CC
48
78
30
30
30
ENDCHAR

STARTCHAR Z
ENCODING 90
SWIDTH 500 0
DWIDTH 6 0
BBX 5 7 1 0
BITMAP
F8
18
30
30
60
C0
F8
ENDCHAR

STARTCHAR bracketleft
ENCODING 91
SWIDTH 320 0
DWIDTH 3 0
BBX 3 9 1 -2
BITMAP
E0
C0
C0
C0
C0
C0
C0
C0
E0
ENDCHAR

STARTCHAR backslash
ENCODING 92
SWIDTH 640 0
DWIDTH 6 0
BBX 5 8 1 -1
BITMAP
80
80
40
20
20
10
08
08
ENDCHAR

STARTCHAR bracketright
ENCODING 93
SWIDTH 320 0
DWIDTH 3 0
BBX 3 9 0 -2
BITMAP
E0
60
60
60
60
60
60
60
E0
ENDCHAR

STARTCHAR asciicircum
ENCODING 94
SWIDTH 600 0
DWIDTH 6 0
BBX 6 6 0 1
BITMAP
30
30
78
48
CC
84
ENDCHAR

STARTCHAR underscore
ENCODING 95
SWIDTH 500 0
DWIDTH 5 0
BBX 5 1 0 -2
BITMAP
F8
ENDCHAR

STARTCHAR quoteleft
ENCODING 96
SWIDTH 280 0
DWIDTH 3 0
BBX 2 3 1 4
BITMAP
40
80
80
ENDCHAR

STARTCHAR a
ENCODING 97
SWIDTH 660 0
DWIDTH 7 0
BBX 6 5 1 0
BITMAP
7C
CC
CC
CC
7C
ENDCHAR

STARTCHAR b
ENCODING 98
SWIDTH 660 0
DWIDTH 7 0
BBX 6 7 1 0
BITMAP
C0
C0
F8
CC
CC
CC
F8
ENDCHAR

STARTCHAR c
ENCODING 99
SWIDTH 640 0
DWIDTH 6 0
BBX 5 5 1 0
BITMAP
70
D8
C0
D8
70
ENDCHAR

STARTCHAR d
ENCODING 100
SWIDTH 660 0
DWIDTH 7 0
BBX 6 7 1 0
BITMAP
0C
0C
7C
CC
CC
CC
7C
ENDCHAR

STARTCHAR e
ENCODING 101
SWIDTH 640 0
DWIDTH 6 0
BBX 5 5 1 0
BITMAP
70
D8
F8
C0
78
ENDCHAR

STARTCHAR f
ENCODING 102
SWIDTH 280 0
DWIDTH 3 0
BBX 4 7 0 0
BITMAP
30
60
F0
60
60
60
60
ENDCHAR

STARTCHAR g
ENCODING 103
SWIDTH 660 0
DWIDTH 7 0
BBX 6 7 1 -2
BITMAP
7C
CC
CC
CC
7C
0C
F8
ENDCHAR

STARTCHAR h
ENCODING 104
SWIDTH 600 0
DWIDTH 6 0
BBX 5 7 1 0
BITMAP
C0
C0
F0
D8
D8
D8
D8
ENDCHAR

STARTCHAR i
ENCODING 105
SWIDTH 240 0
DWIDTH 3 0
BBX 2 7 1 0
BITMAP
C0
00
C0
C0
C0
C0
C0
ENDCHAR

STARTCHAR j
ENCODING 106
SWIDTH 260 0
DWIDTH 3 0
BBX 3 9 0 -2
BITMAP
60
00
60
60
60
60
60
60
C0
ENDCHAR

STARTCHAR k
ENCODING 107
SWIDTH 580 0
DWIDTH 6 0
BBX 5 7 1 0
BITMAP
C0
C0
D8
F0
E0
F0
D8
ENDCHAR

STARTCHAR l
ENCODING 108
SWIDTH 240 0
DWIDTH 3 0
BBX 2 7 1 0
BITMAP
C0
C0
C0
C0
C0
C0
C0
ENDCHAR

STARTCHAR m
ENCODING 109
SWIDTH 940 0
DWIDTH 9 0
BBX 8 5 1 0
BITMAP
B6
DF
DB
DB
DB
ENDCHAR

STARTCHAR n
ENCODING 110
SWIDTH 600 0
DWIDTH 6 0
BBX 5 5 1 0
BITMAP
B0
F8
D8
D8
D8
ENDCHAR

STARTCHAR o
ENCODING 111
SWIDTH 640 0
DWIDTH 6 0
BBX 5 5 1 0
BITMAP
70
D8
D8
D8
70
ENDCHAR

STARTCHAR p
ENCODING 112
SWIDTH 660 0
DWIDTH 7 0
BBX 6 7 1 -2
BITMAP
F8
CC
CC
CC
F8
C0
C0
ENDCHAR

STARTCHAR q
ENCODING 113
SWIDTH 660 0
DWIDTH 7 0
BBX 6 7 1 -2
BITMAP
7C
CC
CC
CC
7C
0C
0C
ENDCHAR

STARTCHAR r
ENCODING 114
SWIDTH 320 0
DWIDTH 4 0
BBX 4 5 1 0
BITMAP
D0
F0
C0
C0
C0
ENDCHAR

STARTCHAR s
ENCODING 115
SWIDTH 440 0
DWIDTH 3 0
BBX 4 5 0 0
BITMAP
70
C0
60
30
E0
ENDCHAR

STARTCHAR t
ENCODING 116
SWIDTH 300 0
DWIDTH 3 0
BBX 4 7 0 0
BITMAP
60
60
F0
60
60
60
60
ENDCHAR

STARTCHAR u
ENCODING 117
SWIDTH 600 0
DWIDTH 6 0
BBX 5 5 1 0
BITMAP
D8
D8
D8
D8
70
ENDCHAR

STARTCHAR v
ENCODING 118
SWIDTH 560 0
DWIDTH 6 0
BBX 5 5 1 0
BITMAP
D8
D8
50
70
20
ENDCHAR

STARTCHAR w
ENCODING 119
SWIDTH 800 0
DWIDTH 8 0
BBX 7 5 1 0
BITMAP
D6
D6
FE
6C
44
ENDCHAR

STARTCHAR x
ENCODING 120
SWIDTH 560 0
DWIDTH 5 0
BBX 6 5 0 0
BITMAP
CC
68
30
58
CC
ENDCHAR

STARTCHAR y
ENCODING 121
SWIDTH 580 0
DWIDTH 6 0
BBX 5 7 1 -2
BITMAP
D8
D8
50
70
30
60
C0
ENDCHAR

STARTCHAR z
ENCODING 122
SWIDTH 460 0
DWIDTH 5 0
BBX 4 5 1 0
BITMAP
F0
30
60
C0
F0
ENDCHAR

STARTCHAR braceleft
ENCODING 123
SWIDTH 340 0
DWIDTH 3 0
BBX 3 9 0 -2
BITMAP
20
60
40
40
C0
40
40
60
20
ENDCHAR

STARTCHAR bar
ENCODING 124
SWIDTH 600 0
DWIDTH 6 0
BBX 2 9 2 -2
BITMAP
C0
C0
C0
C0
C0
C0
C0
C0
C0
ENDCHAR

STARTCHAR braceright
ENCODING 125
SWIDTH 340 0
DWIDTH 3 0
BBX 3 9 0 -2
BITMAP
80
C0
40
40
60
40
40
C0
80
ENDCHAR

STARTCHAR asciitilde
ENCODING 126
SWIDTH 600 0
DWIDTH 6 0
BBX 5 2 1 3
BITMAP
E8
B8
ENDCHAR

STARTCHAR space
ENCODING 160
SWIDTH 280 0
DWIDTH 4 0
BBX 0 0 0 0
BITMAP
ENDCHAR

STARTCHAR Aogonek
ENCODING 161
SWIDTH 740 0
DWIDTH 8 0
BBX 8 9 1 -2
BITMAP
10
38
28
6C
7C
C6
C6
06
03
ENDCHAR

STARTCHAR breve
ENCODING 162
SWIDTH 480 0
DWIDTH 5 0
BBX 5 2 0 6
BITMAP
88
70
ENDCHAR

STARTCHAR Lslash
ENCODING 163
SWIDTH 480 0
DWIDTH 5 0
BBX 5 7 0 0
BITMAP
60
68
70
60
E0
60
78
ENDCHAR

STARTCHAR currency
ENCODING 164
SWIDTH 600 0
DWIDTH 6 0
BBX 6 4 0 2
BITMAP
B4
C8
4C
B4
ENDCHAR

STARTCHAR Lcaron
ENCODING 165
SWIDTH 440 0
DWIDTH 5 0
BBX 5 7 1 0
BITMAP
C8
C8
D0
C0
C0
C0
F0
ENDCHAR

STARTCHAR Sacute
ENCODING 166
SWIDTH 520 0
DWIDTH 5 0
BBX 4 10 1 0
BITMAP
30
60
00
60
D0
C0
60
30
B0
60
ENDCHAR

STARTCHAR section
ENCODING 167
SWIDTH 560 0
DWIDTH 6 0
BBX 4 10 1 -2
BITMAP
60
90
C0
60
B0
D0
60
30
90
60
ENDCHAR

STARTCHAR dieresis
ENCODING 168
SWIDTH 500 0
DWIDTH 5 0
BBX 5 1 0 6
BITMAP
D8
ENDCHAR

STARTCHAR Scaron
ENCODING 169
SWIDTH 520 0
DWIDTH 5 0
BBX 5 10 0 0
BITMAP
D8
70
00
30
68
60
30
18
58
30
ENDCHAR

STARTCHAR Scommaaccent
ENCODING 170
SWIDTH 520 0
DWIDTH 5 0
BBX 4 10 1 -3
BITMAP
60
D0
C0
60
30
B0
60
00
60
C0
ENDCHAR

STARTCHAR Tcaron
ENCODING 171
SWIDTH 420 0
DWIDTH 5 0
BBX 5 10 0 0
BITMAP
D8
70
00
78
30
30
30
30
30
30
ENDCHAR

STARTCHAR Zacute
ENCODING 172
SWIDTH 500 0
DWIDTH 6 0
BBX 5 10 1 0
BITMAP
18
30
00
F8
18
30
30
60
C0
F8
ENDCHAR

STARTCHAR hyphen
ENCODING 173
SWIDTH 420 0
DWIDTH 4 0
BBX 3 1 1 2
BITMAP
E0
ENDCHAR

STARTCHAR Zcaron
ENCODING 174
SWIDTH 500 0
DWIDTH 6 0
BBX 5 10 1 0
BITMAP
D8
70
00
F8
18
30
30
60
C0
F8
ENDCHAR

STARTCHAR Zdotaccent
ENCODING 175
SWIDTH 500 0
DWIDTH 6 0
BBX 5 9 1 0
BITMAP
30
00
F8
18
30
30
60
C0
F8
ENDCHAR

STARTCHAR degree
ENCODING 176
SWIDTH 400 0
DWIDTH 4 0
BBX 4 4 0 3
BITMAP
60
90
90
60
ENDCHAR

STARTCHAR aogonek
ENCODING 177
SWIDTH 660 0
DWIDTH 7 0
BBX 7 8 1 -3
BITMAP
7C
CC
CC
CC
7C
0C
0C
06
ENDCHAR

STARTCHAR ogonek
ENCODING 178
SWIDTH 340 0
DWIDTH 3 0
BBX 3 3 1 -3
BITMAP
C0
C0
60
ENDCHAR

STARTCHAR lslash
ENCODING 179
SWIDTH 320 0
DWIDTH 3 0
BBX 4 7 0 0
BITMAP
60
60
70
E0
60
60
60
ENDCHAR

STARTCHAR acute
ENCODING 180
SWIDTH 420 0
DWIDTH 4 0
BBX 3 2 1 6
BITMAP
60
C0
ENDCHAR

STARTCHAR lcaron
ENCODING 181
SWIDTH 315 0
DWIDTH 4 0
BBX 4 7 1 0
BITMAP
D0
D0
E0
C0
C0
C0
C0
ENDCHAR

STARTCHAR sacute
ENCODING 182
SWIDTH 440 0
DWIDTH 3 0
BBX 4 8 0 0
BITMAP
30
60
00
70
C0
60
30
E0
ENDCHAR

STARTCHAR caron
ENCODING 183
SWIDTH 540 0
DWIDTH 5 0
BBX 4 2 1 6
BITMAP
90
60
ENDCHAR

STARTCHAR commaaccent
ENCODING 184
SWIDTH 333 0
DWIDTH 3 0
BBX 3 2 0 -3
BITMAP
60
C0
ENDCHAR

STARTCHAR scaron
ENCODING 185
SWIDTH 440 0
DWIDTH 3 0
BBX 4 8 0 0
BITMAP
90
60
00
70
C0
60
30
E0
ENDCHAR

STARTCHAR scommaaccent
ENCODING 186
SWIDTH 440 0
DWIDTH 3 0
BBX 4 8 0 -3
BITMAP
70
C0
60
30
E0
00
60
C0
ENDCHAR

STARTCHAR tcaron
ENCODING 187
SWIDTH 418 0
DWIDTH 4 0
BBX 5 7 0 0
BITMAP
68
68
F0
60
60
60
60
ENDCHAR

STARTCHAR zacute
ENCODING 188
SWIDTH 460 0
DWIDTH 5 0
BBX 4 8 1 0
BITMAP
30
60
00
F0
30
60
C0
F0
ENDCHAR

STARTCHAR hungarumlaut
ENCODING 189
SWIDTH 700 0
DWIDTH 7 0
BBX 6 2 1 6
BITMAP
6C
D8
ENDCHAR

STARTCHAR zcaron
ENCODING 190
SWIDTH 460 0
DWIDTH 5 0
BBX 5 8 0 0
BITMAP
D8
70
00
78
18
30
60
78
ENDCHAR

STARTCHAR zdotaccent
ENCODING 191
SWIDTH 460 0
DWIDTH 5 0
BBX 4 7 1 0
BITMAP
60
00
F0
30
60
C0
F0
ENDCHAR

STARTCHAR Racute
ENCODING 192
SWIDTH 580 0
DWIDTH 6 0
BBX 5 10 1 0
BITMAP
30
60
00
F0
D8
D8
F0
F0
D0
D8
ENDCHAR

STARTCHAR Aacute
ENCODING 193
SWIDTH 740 0
DWIDTH 8 0
BBX 7 10 1 0
BITMAP
18
30
00
10
38
28
6C
7C
C6
C6
ENDCHAR

STARTCHAR Acircumflex
ENCODING 194
SWIDTH 740 0
DWIDTH 8 0
BBX 7 10 1 0
BITMAP
38
6C
00
10
38
28
6C
7C
C6
C6
ENDCHAR

STARTCHAR Abreve
ENCODING 195
SWIDTH 740 0
DWIDTH 8 0
BBX 7 10 1 0
BITMAP
CC
78
00
10
38
28
6C
7C
C6
C6
ENDCHAR

STARTCHAR Adieresis
ENCODING 196
SWIDTH 740 0
DWIDTH 8 0
BBX 7 9 1 0
BITMAP
CC
00
10
38
28
6C
7C
C6
C6
ENDCHAR

STARTCHAR Lacute
ENCODING 197
SWIDTH 440 0
DWIDTH 5 0
BBX 4 10 1 0
BITMAP
30
60
00
C0
C0
C0
C0
C0
C0
F0
ENDCHAR

STARTCHAR Cacute
ENCODING 198
SWIDTH 780 0
DWIDTH 7 0
BBX 6 10 1 0
BITMAP
18
30
00
78
CC
C0
C0
C0
CC
78
ENDCHAR

STARTCHAR Ccedilla
ENCODING 199
SWIDTH 780 0
DWIDTH 7 0
BBX 6 10 1 -3
BITMAP
78
CC
C0
C0
C0
CC
78
30
18
30
ENDCHAR

STARTCHAR Ccaron
ENCODING 200
SWIDTH 780 0
DWIDTH 7 0
BBX 6 10 1 0
BITMAP
6C
38
00
78
CC
C0
C0
C0
CC
78
ENDCHAR

STARTCHAR Eacute
ENCODING 201
SWIDTH 520 0
DWIDTH 5 0
BBX 4 10 1 0
BITMAP
30
60
00
F0
C0
C0
F0
C0
C0
F0
ENDCHAR

STARTCHAR Eogonek
ENCODING 202
SWIDTH 520 0
DWIDTH 5 0
BBX 4 10 1 -3
BITMAP
F0
C0
C0
F0
C0
C0
F0
60
60
30
ENDCHAR

STARTCHAR Edieresis
ENCODING 203
SWIDTH 520 0
DWIDTH 5 0
BBX 5 9 0 0
BITMAP
D8
00
78
60
60
78
60
60
78
ENDCHAR

STARTCHAR Ecaron
ENCODING 204
SWIDTH 520 0
DWIDTH 5 0
BBX 5 10 0 0
BITMAP
D8
70
00
78
60
60
78
60
60
78
ENDCHAR

STARTCHAR Iacute
ENCODING 205
SWIDTH 280 0
DWIDTH 3 0
BBX 3 10 0 0
BITMAP
60
C0
00
60
60
60
60
60
60
60
ENDCHAR

STARTCHAR Icircumflex
ENCODING 206
SWIDTH 280 0
DWIDTH 3 0
BBX 4 10 0 0
BITMAP
60
90
00
60
60
60
60
60
60
60
ENDCHAR

STARTCHAR Dcaron
ENCODING 207
SWIDTH 700 0
DWIDTH 7 0
BBX 6 10 1 0
BITMAP
D8
70
00
F8
CC
CC
CC
CC
CC
F8
ENDCHAR

STARTCHAR Dcroat
ENCODING 208
SWIDTH 742 0
DWIDTH 7 0
BBX 7 7 0 0
BITMAP
7C
66
66
F6
66
66
7C
ENDCHAR

STARTCHAR Nacute
ENCODING 209
SWIDTH 740 0
DWIDTH 7 0
BBX 6 10 1 0
BITMAP
18
30
00
CC
CC
EC
FC
DC
CC
CC
ENDCHAR

STARTCHAR Ncaron
ENCODING 210
SWIDTH 740 0
DWIDTH 7 0
BBX 6 10 1 0
BITMAP
6C
38
00
CC
CC
EC
FC
DC
CC
CC
ENDCHAR

STARTCHAR Oacute
ENCODING 211
SWIDTH 840 0
DWIDTH 7 0
BBX 6 10 1 0
BITMAP
18
30
00
78
CC
CC
CC
CC
CC
78
ENDCHAR

STARTCHAR Ocircumflex
ENCODING 212
SWIDTH 840 0
DWIDTH 7 0
BBX 6 10 1 0
BITMAP
38
6C
00
78
CC
CC
CC
CC
CC
78
ENDCHAR

STARTCHAR Ohungarumlaut
ENCODING 213
SWIDTH 840 0
DWIDTH 7 0
BBX 6 10 1 0
BITMAP
6C
D8
00
78
CC
CC
CC
CC
CC
78
ENDCHAR

STARTCHAR Odieresis
ENCODING 214
SWIDTH 840 0
DWIDTH 7 0
BBX 6 9 1 0
BITMAP
D8
00
78
CC
CC
CC
CC
CC
78
ENDCHAR

STARTCHAR multiply
ENCODING 215
SWIDTH 600 0
DWIDTH 6 0
BBX 4 5 1 1
BITMAP
90
F0
60
F0
90
ENDCHAR

STARTCHAR Rcaron
ENCODING 216
SWIDTH 580 0
DWIDTH 6 0
BBX 5 10 1 0
BITMAP
D8
70
00
F0
D8
D8
F0
F0
D0
D8
ENDCHAR

STARTCHAR Uring
ENCODING 217
SWIDTH 640 0
DWIDTH 7 0
BBX 6 10 1 0
BITMAP
38
6C
38
CC
CC
CC
CC
CC
CC
78
ENDCHAR

STARTCHAR Uacute
ENCODING 218
SWIDTH 640 0
DWIDTH 7 0
BBX 6 10 1 0
BITMAP
18
30
00
CC
CC
CC
CC
CC
CC
78
ENDCHAR

STARTCHAR Uhungarumlaut
ENCODING 219
SWIDTH 640 0
DWIDTH 7 0
BBX 7 10 1 0
BITMAP
36
6C
00
CC
CC
CC
CC
CC
CC
78
ENDCHAR

STARTCHAR Udieresis
ENCODING 220
SWIDTH 640 0
DWIDTH 7 0
BBX 6 9 1 0
BITMAP
CC
00
CC
CC
CC
CC
CC
CC
78
ENDCHAR

STARTCHAR Yacute
ENCODING 221
SWIDTH 620 0
DWIDTH 5 0
BBX 6 10 0 0
BITMAP
18
30
00
CC
CC
48
78
30
30
30
ENDCHAR

STARTCHAR Tcommaaccent
ENCODING 222
SWIDTH 420 0
DWIDTH 5 0
BBX 4 10 1 -3
BITMAP
F0
60
60
60
60
60
60
00
60
C0
ENDCHAR

STARTCHAR germandbls
ENCODING 223
SWIDTH 600 0
DWIDTH 6 0
BBX 5 8 1 0
BITMAP
70
D8
D8
D0
D8
D8
D8
D0
ENDCHAR

STARTCHAR racute
ENCODING 224
SWIDTH 320 0
DWIDTH 4 0
BBX 4 8 1 0
BITMAP
30
60
00
D0
F0
C0
C0
C0
ENDCHAR

STARTCHAR aacute
ENCODING 225
SWIDTH 660 0
DWIDTH 7 0
BBX 6 8 1 0
BITMAP
18
30
00
7C
CC
CC
CC
7C
ENDCHAR

STARTCHAR acircumflex
ENCODING 226
SWIDTH 660 0
DWIDTH 7 0
BBX 6 8 1 0
BITMAP
38
6C
00
7C
CC
CC
CC
7C
ENDCHAR

STARTCHAR abreve
ENCODING 227
SWIDTH 660 0
DWIDTH 7 0
BBX 6 8 1 0
BITMAP
CC
78
00
7C
CC
CC
CC
7C
ENDCHAR

STARTCHAR adieresis
ENCODING 228
SWIDTH 660 0
DWIDTH 7 0
BBX 6 7 1 0
BITMAP
CC
00
7C
CC
CC
CC
7C
ENDCHAR

STARTCHAR lacute
ENCODING 229
SWIDTH 240 0
DWIDTH 3 0
BBX 3 10 1 0
BITMAP
60
C0
00
C0
C0
C0
C0
C0
C0
C0
ENDCHAR

STARTCHAR cacute
ENCODING 230
SWIDTH 640 0
DWIDTH 6 0
BBX 5 8 1 0
BITMAP
18
30
00
70
D8
C0
D8
70
ENDCHAR

STARTCHAR ccedilla
ENCODING 231
SWIDTH 640 0
DWIDTH 6 0
BBX 5 8 1 -3
BITMAP
70
D8
C0
D8
70
30
18
30
ENDCHAR

STARTCHAR ccaron
ENCODING 232
SWIDTH 640 0
DWIDTH 6 0
BBX 5 8 1 0
BITMAP
D8
70
00
70
D8
C0
D8
70
ENDCHAR

STARTCHAR eacute
ENCODING 233
SWIDTH 640 0
DWIDTH 6 0
BBX 5 8 1 0
BITMAP
18
30
00
70
D8
F8
C0
78
ENDCHAR

STARTCHAR eogonek
ENCODING 234
SWIDTH 640 0
DWIDTH 6 0
BBX 5 8 1 -3
BITMAP
70
D8
F8
C0
78
30
30
18
ENDCHAR

STARTCHAR edieresis
ENCODING 235
SWIDTH 640 0
DWIDTH 6 0
BBX 5 7 1 0
BITMAP
D8
00
70
D8
F8
C0
78
ENDCHAR

STARTCHAR ecaron
ENCODING 236
SWIDTH 640 0
DWIDTH 6 0
BBX 5 8 1 0
BITMAP
D8
70
00
70
D8
F8
C0
78
ENDCHAR

STARTCHAR iacute
ENCODING 237
SWIDTH 240 0
DWIDTH 3 0
BBX 3 8 1 0
BITMAP
60
C0
00
C0
C0
C0
C0
C0
ENDCHAR

STARTCHAR icircumflex
ENCODING 238
SWIDTH 240 0
DWIDTH 3 0
BBX 4 8 0 0
BITMAP
60
90
00
60
60
60
60
60
ENDCHAR

STARTCHAR dcaron
ENCODING 239
SWIDTH 721 0
DWIDTH 8 0
BBX 8 7 1 0
BITMAP
0D
0D
7E
CC
CC
CC
7C
ENDCHAR

STARTCHAR dcroat
ENCODING 240
SWIDTH 660 0
DWIDTH 7 0
BBX 7 7 1 0
BITMAP
1E
0C
7C
CC
CC
CC
7C
ENDCHAR

STARTCHAR nacute
ENCODING 241
SWIDTH 600 0
DWIDTH 6 0
BBX 5 8 1 0
BITMAP
30
60
00
B0
F8
D8
D8
D8
ENDCHAR

STARTCHAR ncaron
ENCODING 242
SWIDTH 600 0
DWIDTH 6 0
BBX 5 8 1 0
BITMAP
D8
70
00
B0
F8
D8
D8
D8
ENDCHAR

STARTCHAR oacute
ENCODING 243
SWIDTH 640 0
DWIDTH 6 0
BBX 5 8 1 0
BITMAP
30
60
00
70
D8
D8
D8
70
ENDCHAR

STARTCHAR ocircumflex
ENCODING 244
SWIDTH 640 0
DWIDTH 6 0
BBX 5 8 1 0
BITMAP
70
D8
00
70
D8
D8
D8
70
ENDCHAR

STARTCHAR ohungarumlaut
ENCODING 245
SWIDTH 640 0
DWIDTH 6 0
BBX 6 8 1 0
BITMAP
6C
D8
00
70
D8
D8
D8
70
ENDCHAR

STARTCHAR odieresis
ENCODING 246
SWIDTH 640 0
DWIDTH 6 0
BBX 5 7 1 0
BITMAP
D8
00
70
D8
D8
D8
70
ENDCHAR

STARTCHAR divide
ENCODING 247
SWIDTH 600 0
DWIDTH 6 0
BBX 6 7 0 1
BITMAP
30
30
00
FC
00
30
30
ENDCHAR

STARTCHAR rcaron
ENCODING 248
SWIDTH 320 0
DWIDTH 4 0
BBX 5 8 0 0
BITMAP
D8
70
00
68
78
60
60
60
ENDCHAR

STARTCHAR uring
ENCODING 249
SWIDTH 600 0
DWIDTH 6 0
BBX 5 9 1 0
BITMAP
20
50
20
00
D8
D8
D8
D8
70
ENDCHAR

STARTCHAR uacute
ENCODING 250
SWIDTH 600 0
DWIDTH 6 0
BBX 5 8 1 0
BITMAP
30
60
00
D8
D8
D8
D8
70
ENDCHAR

STARTCHAR uhungarumlaut
ENCODING 251
SWIDTH 600 0
DWIDTH 6 0
BBX 6 8 1 0
BITMAP
6C
D8
00
D8
D8
D8
D8
70
ENDCHAR

STARTCHAR udieresis
ENCODING 252
SWIDTH 600 0
DWIDTH 6 0
BBX 5 7 1 0
BITMAP
D8
00
D8
D8
D8
D8
70
ENDCHAR

STARTCHAR yacute
ENCODING 253
SWIDTH 580 0
DWIDTH 6 0
BBX 5 10 1 -2
BITMAP
18
30
00
D8
D8
50
70
30
60
C0
ENDCHAR

STARTCHAR tcommaaccent
ENCODING 254
SWIDTH 300 0
DWIDTH 3 0
BBX 4 10 0 -3
BITMAP
60
60
F0
60
60
60
60
00
60
C0
ENDCHAR

STARTCHAR dotaccent
ENCODING 255
SWIDTH 280 0
DWIDTH 3 0
BBX 2 1 1 6
BITMAP
C0
ENDCHAR
ENDFONT
